<?xml version="1.0" encoding="utf-8"?>
<!-- Generator: Adobe Illustrator 18.0.0, SVG Export Plug-In . SVG Version: 6.00 Build 0)  -->
<!DOCTYPE svg PUBLIC "-//W3C//DTD SVG 1.1//EN" "http://www.w3.org/Graphics/SVG/1.1/DTD/svg11.dtd">
<svg version="1.1" id="Layer_1" xmlns="http://www.w3.org/2000/svg" xmlns:xlink="http://www.w3.org/1999/xlink" x="0px" y="0px"
	 viewBox="0 0 31.5 75" enable-background="new 0 0 31.5 75" xml:space="preserve">
<path d="M10.5,0.5c-0.7,0-0.7-0.6-0.7,0.1v0.6c0,0.7,0,2.2,0.7,2.2h0.6c0,6,1.3,11.9-0.7,17.6c-1.4,4-6.7,10.4-8,14.5
	c-0.8,2.5-1.2,5-1.5,7.6c-1.4,11-1,19.1-0.7,30.2c0,0.5,0,1,0.3,1.4c0.5,0.6,1.4,0.5,2.1,0.4c4-0.5,8.8-0.6,13-0.8
	c4.2,0.2,9,0.3,13,0.8c0.7,0.1,1.6,0.2,2.1-0.4c0.3-0.4,0.3-0.9,0.3-1.5c0.4-11.1,0.7-19.2-0.7-30.3c-0.3-2.6-0.7-5.2-1.5-7.6
	c-1.3-4.1-6.6-10.3-8-14.3c-2-5.7-0.6-11.6-0.7-17.6h0.6c0.7,0,0.9-1.5,0.9-2.2V0.6c0-0.7-0.3-0.1-0.9-0.1H10.5z"/>
</svg>
