<?xml version="1.0" encoding="utf-8"?>
<!-- Generator: Adobe Illustrator 18.0.0, SVG Export Plug-In . SVG Version: 6.00 Build 0)  -->
<!DOCTYPE svg PUBLIC "-//W3C//DTD SVG 1.1//EN" "http://www.w3.org/Graphics/SVG/1.1/DTD/svg11.dtd">
<svg version="1.1" id="Layer_1" xmlns="http://www.w3.org/2000/svg" xmlns:xlink="http://www.w3.org/1999/xlink" x="0px" y="0px"
	 viewBox="0 0 31.5 75" enable-background="new 0 0 31.5 75" xml:space="preserve">
<path d="M30.2,70.6c0.2,0.8,1.2,0.6,1.2,1.6c0,1-1,1.8-1.7,2.3c-2.1,1.5-3.8-0.5-6.2-0.1c-2.4,0.3-4.1,0.5-6.4-0.5
	c-2.3-1-4.5-2.5-6.3-4.3C3.2,62.1,0.6,49.2,0,38.9c-0.5-9,0.7-20.8,6.6-28C8,9.3,9.9,8.1,11.8,7.3c1-0.4,2.1-0.7,3.3-0.7
	c0.9-1.2,1.9-2.4,2.4-3.8c0.4-1.1-0.2-2.4,0.9-2.7c1.9-0.6,1.6,0.8,2.4,1.8c0.6,0.7,1.4,1.2,2.3,1.4c1.6,0.4,0.8,1.3,1.1,2.5
	c-0.9,0.3-1.8-0.5-2.5,0c-1.1,0.7-1.5,3.1-2.6,2.3c4.1,2.7,2.7,12.5,2.1,15.8c-1.2,6.5-2.2,12.7-1.6,19.3c0.5,5.7,1.7,12.6,5.7,17
	c1.5,1.7,3.3,2.8,4,5.1C29.6,67,29.8,68.8,30.2,70.6z"/>
</svg>
