<?xml version="1.0" encoding="utf-8"?>
<!-- Generator: Adobe Illustrator 18.0.0, SVG Export Plug-In . SVG Version: 6.00 Build 0)  -->
<!DOCTYPE svg PUBLIC "-//W3C//DTD SVG 1.1//EN" "http://www.w3.org/Graphics/SVG/1.1/DTD/svg11.dtd">
<svg version="1.1" id="ui" xmlns="http://www.w3.org/2000/svg" xmlns:xlink="http://www.w3.org/1999/xlink" x="0px" y="0px"
	 viewBox="0 0 480 115" enable-background="new 0 0 480 115" xml:space="preserve">
<path id="options-btn" fill="#808080" d="M248,97.5v8.7c0,2.7,2.2,5.3,4.9,5.3h50.2c2.7,0,4.9-2.6,4.9-5.3v-8.7H248z"/>
<text id="options-txt" transform="matrix(1 0 0 1 259.4499 107.8206)" fill="#FFFFFF" font-family="'Tt-Kp-Medium'" font-size="10">OPTIONS</text>
<path id="help-btn" fill="#808080" d="M188,97.5v8.7c0,2.7,2.2,5.3,4.9,5.3h50.2c2.7,0,4.9-2.6,4.9-5.3v-8.7H188z"/>
<text id="help-txt" transform="matrix(1 0 0 1 207.3998 107.8206)" fill="#FFFFFF" font-family="'Tt-Kp-Medium'" font-size="10">HELP</text>
<path id="menu-btn" fill="#808080" d="M128,97.5v8.7c0,2.7,2.2,5.3,4.9,5.3h50.2c2.7,0,4.9-2.6,4.9-5.3v-8.7H128z"/>
<text id="menu-txt" transform="matrix(1 0 0 1 134.3 107.8206)" fill="#FFFFFF" font-family="'Tt-Kp-Medium'" font-size="10">MAIN MENU</text>
<path id="map-base" fill="#808080" d="M472.2,30.5h-66.6c2.5,0,4.4,2.4,4.4,5v57c0,2.8-2.1,5-4.8,5h67c2.8,0,4.8-2.2,4.8-5v-57
	C477,32.8,474.9,30.5,472.2,30.5z"/>
<path id="map-frame" fill="#4D4D4D" d="M418.6,34h50c2.8,0,5,2.2,5,5v50c0,2.8-2.2,5-5,5h-50c-2.8,0-5-2.2-5-5V39
	C413.6,36.3,415.8,34,418.6,34z"/>
<path id="slots-base" fill="#999999" d="M405.2,30.5h-82.6c-0.1,0-0.2,0-0.2,0C334.5,36,343,48.3,343,62.5c0,0.1,0,0.1,0,0.2
	c0,0,0,0.1,0,0.1v24.7c0,5.5-4.5,10-10,10h72.2c2.8,0,4.8-2.2,4.8-5v-57C410,32.8,407.9,30.5,405.2,30.5z"/>
<path id="stats-base" fill="#999999" d="M93,87.5V62.8c0,0,0-0.1,0-0.1c0-0.1,0-0.1,0-0.2c0-14.2,8.5-26.5,20.7-32c0,0,0,0,0,0H7.5
	c-2.8,0-5.5,2.3-5.5,5v57c0,2.8,2.7,5,5.5,5H103C97.5,97.5,93,93,93,87.5z"/>
<path id="rack-base" fill="#CCCCCC" d="M343,62.5c0-14.2-8.5-26.5-20.7-31.9c2-2.9,3.2-6.3,3.2-10.1c0-9.6-7.9-17.5-17.5-17.5
	c-9.6,0-17.4,7.7-17.5,17.3C287.3,17,282.9,15,278,15s-9.3,2-12.5,5.3C265.4,10.7,257.6,3,248,3s-17.4,7.7-17.5,17.3
	C227.3,17,222.9,15,218,15s-9.3,2-12.5,5.3C205.4,10.7,197.6,3,188,3s-17.4,7.7-17.5,17.3C167.3,17,162.9,15,158,15s-9.3,2-12.5,5.3
	C145.4,10.7,137.6,3,128,3c-9.6,0-17.5,7.9-17.5,17.5c0,3.7,1.2,7.2,3.2,10.1C101.5,36,93,48.3,93,62.5c0,0.1,0,0.1,0,0.2
	c0,0,0,0.1,0,0.1v24.7c0,5.5,4.5,10,10,10h230c5.5,0,10-4.5,10-10V62.8c0,0,0-0.1,0-0.1C343,62.6,343,62.6,343,62.5z"/>
<circle id="health-base" fill="#4D4D4D" cx="128" cy="62.5" r="27.5"/>
<rect id="health-fill" x="100.5" y="35" fill="#FF001D" width="55" height="55"/>
<circle id="health-mask" cx="128" cy="62.5" r="27.5"/>
<path id="health-icon" fill="#FFFFFF" d="M136.4,46.1c0.5,0,1.1,0,1.7,0.1c3.6,0.3,7.7,3.6,8.3,9.8v2.1c-0.5,6-5,13.3-18.3,22.6
	c-13.3-9.2-17.9-16.6-18.3-22.6v-2.1c0.5-6.2,4.7-9.5,8.3-9.8c0.6-0.1,1.1-0.1,1.7-0.1c4.2,0,6.1,1.8,8.4,4.5
	C130.3,47.9,132.3,46.1,136.4,46.1"/>
<circle id="stamina-base" fill="#4D4D4D" cx="188" cy="62.5" r="27.5"/>
<rect id="stamina-fill" x="160.5" y="35" fill="#00EA0B" width="55" height="55"/>
<circle id="stamina-mask" cx="188" cy="62.5" r="27.5"/>
<polygon id="stamina-icon" fill="#FFFFFF" points="187.8,73.1 176.5,79 178.6,66.4 169.5,57.5 182.1,55.6 187.8,44.1 193.5,55.6 
	206.1,57.5 197,66.4 199.1,79 "/>
<circle id="hunger-base_1_" fill="#4D4D4D" cx="248" cy="62.5" r="27.5"/>
<rect id="hunger-fill" x="220.5" y="35" fill="#B200FF" width="55" height="55"/>
<circle id="hunger-mask" cx="248" cy="62.5" r="27.5"/>
<path id="hunger-icon" fill="#FFFFFF" d="M248.7,49.9v-5.7H248h-0.7v5.7c-15.8-6-22,12-11.2,26.8c2.9,3.9,7.3,5.2,11.2,3.2v0.2
	c0,0.1,0.1,0.1,0.1,0.2c0,0,0,0,0,0c0.1,0.2,0.4,0.4,0.6,0.4c0.3,0,0.5-0.1,0.6-0.4c0,0,0,0,0,0c0-0.1,0.1-0.1,0.1-0.2v-0.2
	c3.9,2,8.3,0.7,11.2-3.2C270.7,61.9,264.5,43.9,248.7,49.9z"/>
<circle id="thirst-base" fill="#4D4D4D" cx="308" cy="62.5" r="27.5"/>
<rect id="thirst-fill" x="280.5" y="35" fill="#007FFF" width="55" height="55"/>
<circle id="thirst-mask" cx="308" cy="62.5" r="27.5"/>
<path id="thirst-icon_1_" fill="#FFFFFF" d="M320.2,68.6c0,6.8-5.5,12.2-12.2,12.2c-6.8,0-12.2-5.5-12.2-12.2c0-1.9,0.4-3.8,1.2-5.4
	c0.8-1.6,0.9-1.5,2-3.2c1.3-1.9,3-4.4,4.5-6.9c2.7-4.6,4.5-9,4.5-9s1.8,4.3,4.5,9c1.4,2.5,3.2,5,4.5,6.9c1.1,1.7,1.2,1.6,2,3.2
	C319.8,64.9,320.2,66.7,320.2,68.6z"/>
<text id="status-tit" transform="matrix(1 0 0 1 6.6668 90.4872)" fill="#FFFFFF" font-family="'Tt-Kp-Medium'" font-size="8">STATUS:</text>
<text id="status-val" transform="matrix(1 0 0 1 59.3197 90.5497)" fill="#FFFFFF" font-family="'Tt-Kp-Medium'" font-size="8">HEALTHY</text>
<text id="weight-tit" transform="matrix(1 0 0 1 6.6668 78.4872)" fill="#FFFFFF" font-family="'Tt-Kp-Medium'" font-size="8">WEIGHT:</text>
<text id="weight-val" transform="matrix(1 0 0 1 84.7601 78.4872)" fill="#FF931E" font-family="'Tt-Kp-Medium'" font-size="8">0</text>
<text id="talent-tit" transform="matrix(1 0 0 1 6.6668 66.4872)" fill="#FFFFFF" font-family="'Tt-Kp-Medium'" font-size="8">TALENT:</text>
<text id="talent-val" transform="matrix(1 0 0 1 84.7601 66.4872)" fill="#00FF00" font-family="'Tt-Kp-Medium'" font-size="8">0</text>
<text id="defense-tit" transform="matrix(1 0 0 1 6.6668 54.4872)" fill="#FFFFFF" font-family="'Tt-Kp-Medium'" font-size="8">DEFENSE:</text>
<text id="defense-val" transform="matrix(1 0 0 1 84.7601 54.4872)" fill="#00FFFF" font-family="'Tt-Kp-Medium'" font-size="8">0</text>
<text id="attack-tit" transform="matrix(1 0 0 1 6.6668 42.4872)" fill="#FFFFFF" font-family="'Tt-Kp-Medium'" font-size="8">ATTACK:</text>
<text id="attack-val" transform="matrix(1 0 0 1 84.7601 42.4872)" fill="#FFFF00" font-family="'Tt-Kp-Medium'" font-size="8">0</text>
<rect id="line" x="7" y="45.5" fill="#808080" width="83" height="1"/>
<rect id="line_1_" x="7" y="57.5" fill="#808080" width="83" height="1"/>
<rect id="line_2_" x="7" y="69.5" fill="#808080" width="83" height="1"/>
<rect id="line_3_" x="7" y="81.5" fill="#808080" width="83" height="1"/>
<path id="slot-9" fill="#4D4D4D" d="M400.2,92.5h-7c-2.8,0-5-2.2-5-5v-7c0-2.8,2.2-5,5-5h7c2.8,0,5,2.2,5,5v7
	C405.2,90.2,402.9,92.5,400.2,92.5z"/>
<text id="slot-txt-9" transform="matrix(1 0 0 1 398.9266 89.7627)" fill="#FFFFFF" font-family="'Tt-Kp-Medium'" font-size="8">9</text>
<path id="slot-8" fill="#4D4D4D" d="M368.2,87.5v-7c0-2.8,2.2-5,5-5h7c2.8,0,5,2.2,5,5v7c0,2.8-2.2,5-5,5h-7
	C370.4,92.5,368.2,90.2,368.2,87.5z"/>
<text id="slot-txt-8" transform="matrix(1 0 0 1 378.9499 89.7632)" fill="#FFFFFF" font-family="'Tt-Kp-Medium'" font-size="8">8</text>
<path id="slot-7" fill="#4D4D4D" d="M348.2,87.5v-7c0-2.8,2.2-5,5-5h7c2.8,0,5,2.2,5,5v7c0,2.8-2.2,5-5,5h-7
	C350.5,92.5,348.2,90.2,348.2,87.5z"/>
<text id="slot-txt-7" transform="matrix(1 0 0 1 358.973 89.7632)" fill="#FFFFFF" font-family="'Tt-Kp-Medium'" font-size="8">7</text>
<path id="slot-6" fill="#4D4D4D" d="M400.2,72.5h-7c-2.8,0-5-2.2-5-5v-7c0-2.8,2.2-5,5-5h7c2.8,0,5,2.2,5,5v7
	C405.2,70.3,402.9,72.5,400.2,72.5z"/>
<text id="slot-txt-6" transform="matrix(1 0 0 1 398.9266 69.7861)" fill="#FFFFFF" font-family="'Tt-Kp-Medium'" font-size="8">6</text>
<path id="slot-5" fill="#4D4D4D" d="M368.2,67.5v-7c0-2.8,2.2-5,5-5h7c2.8,0,5,2.2,5,5v7c0,2.8-2.2,5-5,5h-7
	C370.4,72.5,368.2,70.3,368.2,67.5z"/>
<text id="slot-txt-5" transform="matrix(1 0 0 1 378.9499 69.7866)" fill="#FFFFFF" font-family="'Tt-Kp-Medium'" font-size="8">5</text>
<path id="slot-4" fill="#4D4D4D" d="M348.2,67.5v-7c0-2.8,2.2-5,5-5h7c2.8,0,5,2.2,5,5v7c0,2.8-2.2,5-5,5h-7
	C350.5,72.5,348.2,70.3,348.2,67.5z"/>
<text id="slot-txt-4" transform="matrix(1 0 0 1 358.973 69.7866)" fill="#FFFFFF" font-family="'Tt-Kp-Medium'" font-size="8">4</text>
<path id="slot-3" fill="#4D4D4D" d="M400.2,52.5h-7c-2.8,0-5-2.2-5-5v-7c0-2.8,2.2-5,5-5h7c2.8,0,5,2.2,5,5v7
	C405.2,50.3,402.9,52.5,400.2,52.5z"/>
<text id="slot-txt-3" transform="matrix(1 0 0 1 398.9266 49.8098)" fill="#FFFFFF" font-family="'Tt-Kp-Medium'" font-size="8">3</text>
<path id="slot-2" fill="#4D4D4D" d="M368.2,47.5v-7c0-2.8,2.2-5,5-5h7c2.8,0,5,2.2,5,5v7c0,2.8-2.2,5-5,5h-7
	C370.4,52.5,368.2,50.3,368.2,47.5z"/>
<text id="slot-txt-2" transform="matrix(1 0 0 1 378.9499 49.8103)" fill="#FFFFFF" font-family="'Tt-Kp-Medium'" font-size="8">2</text>
<path id="slot-1" fill="#4D4D4D" d="M348.2,47.5v-7c0-2.8,2.2-5,5-5h7c2.8,0,5,2.2,5,5v7c0,2.8-2.2,5-5,5h-7
	C350.5,52.5,348.2,50.3,348.2,47.5z"/>
<text id="slot-txt-1" transform="matrix(1 0 0 1 358.973 49.8103)" fill="#FFFFFF" font-family="'Tt-Kp-Medium'" font-size="8">1</text>
<circle id="msn-bnt" fill="#999999" cx="308" cy="20.5" r="12.5"/>
<g id="msn-icon">
	<g>
		<path fill="#4D4D4D" d="M302.5,29v-3.2h-1.4c-0.6,0-1.1-0.5-1.1-1.1v-9.9c0-0.6,0.5-1.1,1.1-1.1H315c0.6,0,1.1,0.5,1.1,1.1v9.9
			c0,0.6-0.5,1.1-1.1,1.1h-8L302.5,29z M301.1,14.7c-0.1,0-0.2,0.1-0.2,0.2v9.9c0,0.1,0.1,0.2,0.2,0.2h2.3v2.3l3.2-2.3h8.3
			c0.1,0,0.2-0.1,0.2-0.2v-9.9c0-0.1-0.1-0.2-0.2-0.2H301.1z"/>
	</g>
	<g>
		<g>
			<path fill="#4D4D4D" d="M311.4,18.1h-7.1c-0.3,0-0.5-0.2-0.5-0.5c0-0.3,0.2-0.5,0.5-0.5h7.1c0.3,0,0.5,0.2,0.5,0.5
				C311.9,17.9,311.7,18.1,311.4,18.1z"/>
		</g>
		<g>
			<path fill="#4D4D4D" d="M311.4,20.3h-7.1c-0.3,0-0.5-0.2-0.5-0.5c0-0.3,0.2-0.5,0.5-0.5h7.1c0.3,0,0.5,0.2,0.5,0.5
				C311.9,20.1,311.7,20.3,311.4,20.3z"/>
		</g>
		<g>
			<path fill="#4D4D4D" d="M311.4,22.4h-7.1c-0.3,0-0.5-0.2-0.5-0.5c0-0.3,0.2-0.5,0.5-0.5h7.1c0.3,0,0.5,0.2,0.5,0.5
				C311.9,22.2,311.7,22.4,311.4,22.4z"/>
		</g>
	</g>
</g>
<circle id="milestones-bnt" fill="#999999" cx="278" cy="32.5" r="12.5"/>
<g id="milestones-icon">
	<polygon fill="#4D4D4D" points="279.9,28.9 282.9,27.8 279.9,26.8 280.5,25.5 279.2,26.1 278.2,23.1 277.1,26.1 275.8,25.5 
		276.4,26.8 273.5,27.8 276.4,28.9 275.8,30.2 277.1,29.5 278.2,32.5 279.2,29.5 280.5,30.2 	"/>
	<path fill="#4D4D4D" d="M284.2,27.7c0-3.3-2.8-5.9-6-5.9s-6.3,2.6-6.3,5.9c0,1.9,1,3.7,2,4.8v9.7l4.1-4.1l3.9,4.1v-9.6
		C284,31.5,284.2,29.7,284.2,27.7z M280,37.5l-2-2.3l-2,2.3v-4.1c1,0.2,1.3,0.3,2,0.3c0.7,0,2-0.1,2-0.3V37.5z M278.1,32.8
		c-2.8,0-5-2.3-5-5s2.3-5,5-5c2.8,0,5,2.3,5,5S280.9,32.8,278.1,32.8z"/>
</g>
<circle id="skills-bnt" fill="#999999" cx="248" cy="20.5" r="12.5"/>
<path id="skills-icon" fill="#4D4D4D" d="M253.1,12.1h-7.7c-0.3,0-0.8,0-1.1,0h-0.9c-0.3,0-0.7,0.2-1,0.4l-0.1,0.1
	c-0.2,0.2-0.4,0.6-0.4,0.9v0.4V14v13.1c0,0.3,0.2,0.6,0.6,0.6h9.7c0.3,0,0.6-0.2,0.6-0.6V13.9c0-0.3-0.2-0.6-0.6-0.6h-6.5
	c0-0.2-0.2-0.4-0.4-0.4s-0.4,0.2-0.4,0.4v0.1v3.7l-0.9-0.9l-0.8,0.9v-3.8h-0.8c0,0,0,0,0,0l0.6-0.7h1.8h8.2v13.9h0
	c0.3,0,0.6-0.2,0.6-0.6V12.7C253.7,12.4,253.5,12.1,253.1,12.1z"/>
<circle id="craft-bnt" fill="#999999" cx="218" cy="32.5" r="12.5"/>
<g id="craft-icon">
	<path fill="#4D4D4D" d="M213.5,31.5c0.3,0.3,0.8,0.3,1.1,0l0.6-0.6c0.3-0.3,0.3-0.8,0-1.1l-3.4-3.4c-0.3-0.3-0.8-0.3-1.1,0
		l-0.6,0.6c-0.3,0.3-0.3,0.8,0,1.1L213.5,31.5z"/>
	<path fill="#4D4D4D" d="M226.1,28.1c0-0.2-0.1-0.3-0.2-0.4l-3.6-3.6c-0.3-0.3-0.7-0.2-0.9,0l-3.1,3.1c-0.3,0.3-0.3,0.7,0,0.9
		l5.4,5.4c0.3,0.3,0.6,0.1,0.8-0.1l1.4-1.4c0.1-0.1,0.3-0.3,0.3-0.4L226.1,28.1z"/>
	<path fill="#4D4D4D" d="M215.4,32.7c0,0.2,0,0.3-0.1,0.4l7.8,7.8l1.4-1.4l-7.8-7.8c-0.2,0.1-0.8,0.1-1.3-0.2l-0.4,0.4
		C215.3,32.1,215.4,32.4,215.4,32.7z"/>
	<g>
		<path fill="#4D4D4D" d="M217.4,35.7l-1.2-1.2l-4.8,4.8c-0.2,0.2-0.2,0.3-0.1,0.5l0.7,0.7c0.2,0.2,0.4,0.2,0.6,0.1L217.4,35.7z"/>
		
			<rect x="218.3" y="31.3" transform="matrix(-0.7071 0.7071 -0.7071 -0.7071 397.8282 -100.5429)" fill="#4D4D4D" width="3" height="1.7"/>
	</g>
</g>
<circle id="equip-bnt" fill="#999999" cx="188" cy="20.5" r="12.5"/>
<g id="equip-icon">
	<polygon fill="#4D4D4D" points="196.6,21.8 198.1,22.8 196.6,23 	"/>
	<polygon fill="#4D4D4D" points="184.7,25.2 196.3,23.4 196.8,24.5 184.9,26.4 	"/>
	<polygon fill="#4D4D4D" points="184.4,23.6 196.2,21.7 196.1,23 196.1,23 184.5,24.9 	"/>
	<path fill="#4D4D4D" d="M184.3,27.7c-0.1,0-0.2-0.1-0.2-0.2l-0.7-4.7c0-0.1,0-0.1,0-0.2c0,0,0.1-0.1,0.1-0.1c0,0,0.1,0,0.1,0
		c0.1,0,0.2,0.1,0.2,0.2l0.7,4.7c0,0.1-0.1,0.2-0.2,0.2L184.3,27.7z"/>
	<polygon fill="#4D4D4D" points="196.7,23.4 198.1,23.1 197.1,24.3 	"/>
	<path fill="#4D4D4D" d="M179.3,26.8c-0.3,0-0.5-0.2-0.5-0.4l-0.1-0.8c0-0.1,0-0.3,0.1-0.4c0.1-0.1,0.2-0.2,0.3-0.2l4.2-0.7l0.3,1.8
		L179.3,26.8L179.3,26.8z"/>
	<path fill="#4D4D4D" d="M187.7,13.8c-0.1-0.1-0.2-0.2-0.4-0.3l-1.8-1.6c0.7-0.4,1.4-0.5,2.2-0.5c0.8,0,1.5,0.2,2.2,0.6l-1.8,1.6
		C188,13.6,187.8,13.7,187.7,13.8C187.8,13.8,187.7,13.8,187.7,13.8C187.7,13.8,187.7,13.8,187.7,13.8z"/>
	<path fill="#4D4D4D" d="M187.7,16c-0.3,0-0.6-0.2-0.7-0.4l-2.3-4l2.4,2.1c0.2,0.1,0.3,0.2,0.4,0.3c0.1,0.1,0.2,0.2,0.3,0.2
		c0.1,0,0.2-0.1,0.3-0.2c0.1-0.1,0.2-0.2,0.4-0.3l2.4-2.1l-2.3,4C188.3,15.9,188,16,187.7,16z"/>
	<path fill="#4D4D4D" d="M192.8,20.8c0-2.2-0.8-4.2-2-5.5c-0.2-0.2-0.3-0.2-0.5-0.2c-0.4,0-0.8,0.4-1.2,0.8
		c-0.4,0.4-0.8,0.8-1.3,0.8c-0.4,0-0.8-0.5-1.2-0.9c-0.4-0.5-0.8-0.9-1.2-0.9c-0.2,0-0.3,0.1-0.4,0.2c-1.3,1.3-2.2,3.4-2.2,5.6
		c-0.4-0.9-0.6-1.9-0.6-2.9c0-2.3,1-4.3,2.6-5.6l2,3.4c0.2,0.4,0.6,0.6,1,0.6c0.4,0,0.8-0.2,1-0.6l2-3.4c1.6,1.2,2.6,3.3,2.6,5.5
		C193.3,18.9,193.1,19.9,192.8,20.8z"/>
	<path fill="#4D4D4D" d="M192.2,21.9c-0.3,0-0.7-0.3-1.2-0.6c-0.9-0.6-2-1.2-3.2-1.2c-1.2,0-2.3,0.7-3.2,1.2c-0.5,0.3-1,0.6-1.2,0.6
		c-0.1,0-0.1,0-0.2-0.1l0-0.2c0-0.3,0-0.5,0-0.7c0-2.2,0.8-4.3,2.1-5.5c0.1-0.1,0.1-0.1,0.2-0.1c0.2,0,0.6,0.4,0.9,0.8
		c0.5,0.5,0.9,1,1.5,1c0.6,0,1-0.5,1.5-1c0.4-0.4,0.7-0.7,1-0.7c0.1,0,0.2,0,0.2,0.1c1.2,1.2,1.9,3.2,1.9,5.4c0,0.2,0,0.5,0,0.7
		l0,0.3c0,0,0,0,0,0C192.3,21.9,192.2,21.9,192.2,21.9C192.2,21.9,192.2,21.9,192.2,21.9z"/>
</g>
<circle id="inventory-bnt" fill="#999999" cx="158" cy="32.5" r="12.5"/>
<g id="inventory-icon">
	<path fill="#4D4D4D" d="M160.2,32.6c2.2-1,4-3.4,4.6-5c0.2-0.5,0.3-1.3-0.2-1.8c-0.5-0.4-2-0.6-4.3-0.6c-4.4,0-9.3,0.8-9.7,1.2
		c-0.1,0.1-0.1,0.4,0.3,1.1c0.8,1.7,3.3,4.6,5.9,5.5l-0.1-1.1c-0.1-0.9,0.7-1.8,1.6-1.8c1,0,1.8,0.7,1.8,1.6L160.2,32.6z"/>
	<path fill="#4D4D4D" d="M158.4,30.5L158.4,30.5c-0.8,0-1.4,0.7-1.3,1.4l0.1,2.6c0,0.7,0.6,1.3,1.3,1.3l0.1,0c0.4,0,0.7-0.2,0.9-0.4
		c0.2-0.3,0.4-0.6,0.3-1l-0.1-2.6C159.7,31,159.1,30.5,158.4,30.5z"/>
	<path fill="#4D4D4D" d="M165.2,27.3c0,0.1,0,0.2-0.1,0.4c-0.6,1.8-2.6,4.3-4.9,5.3l0.1,1.3c0,0.5-0.1,0.9-0.4,1.2
		c-0.3,0.3-0.7,0.5-1.2,0.6c0,0-0.1,0-0.1,0c-0.9,0-1.7-0.7-1.7-1.6l-0.1-1.2c-2.7-0.8-5.3-3.9-6.2-5.7c0,0,0,0,0-0.1
		c-0.6,2.5-0.6,8.6,0.5,10.2c1.3,1.9,12.6,1.3,14.4-0.2C166.9,36.5,166.3,30,165.2,27.3z"/>
</g>
<circle id="actions-bnt" fill="#999999" cx="128" cy="20.5" r="12.5"/>
<path id="action-icon" fill="#4D4D4D" d="M128,11.3c0.4-0.3,1-0.1,1.3,0.3c0.1,0.2,0.2,0.4,0.1,0.6l-1.2,6l0.4,0.1l3.2-5.8l0,0
	c0.2-0.4,0.8-0.6,1.3-0.3c0.4,0.2,0.6,0.8,0.4,1.2l-3.1,5.8l0.2,0.3l4.1-4.2c0.4-0.4,0.9-0.4,1.3,0c0.4,0.3,0.4,0.9,0,1.3l-4.2,4.7
	l0.2,0.5l4.7-1.2c0.5-0.1,1,0.2,1.1,0.7c0.1,0.5-0.1,0.9-0.6,1.1l-5,1.7l-3.2,3.6l-0.2,1.5c-0.1,0.5-0.5,0.8-0.9,0.8l-3.8,0
	c-0.5,0-0.8-0.3-0.9-0.8l-0.7-5.3l-1-2.5c0,0,0-0.1,0-0.1l-0.6-2.1l-1-1.9c-0.2-0.4-0.1-1,0.4-1.2c0.4-0.2,0.9-0.1,1.2,0.3l1.1,1.8
	c0,0,0,0.1,0.1,0.1l1,2.1l0.6,0.2L125,20l1-1.4l1.7-6.8C127.7,11.6,127.8,11.4,128,11.3L128,11.3z"/>
</svg>
